<?xml version="1.0" standalone="no"?>
<!DOCTYPE svg PUBLIC "-//W3C//DTD SVG 20010904//EN"
 "http://www.w3.org/TR/2001/REC-SVG-20010904/DTD/svg10.dtd">
<svg version="1.0" xmlns="http://www.w3.org/2000/svg"
 width="375.000000pt" height="666.000000pt" viewBox="0 0 375.000000 666.000000"
 preserveAspectRatio="xMidYMid meet">

<g transform="translate(0.000000,666.000000) scale(0.100000,-0.100000)"
fill="#000000" stroke="none">
<path d="M1703 4890 c-40 -13 -63 -44 -63 -87 0 -40 24 -58 97 -74 30 -7 52
-17 50 -23 -5 -16 -69 -19 -114 -6 -35 9 -40 8 -60 -15 -13 -15 -23 -30 -23
-35 0 -12 81 -24 151 -23 68 1 112 22 128 62 24 57 -1 85 -93 105 -66 15 -73
36 -12 36 24 0 56 -4 70 -10 21 -8 28 -5 46 17 25 31 25 39 3 48 -31 12 -147
15 -180 5z"/>
<path d="M3028 4890 c-56 -17 -87 -44 -109 -94 -53 -123 20 -191 179 -166 37
6 70 14 73 18 6 7 29 114 29 134 0 5 -17 8 -37 6 -36 -3 -39 -5 -47 -45 l-9
-43 -48 0 c-58 0 -83 20 -74 59 12 54 85 84 153 63 30 -9 37 -9 49 6 35 45 35
50 -4 61 -44 13 -116 13 -155 1z"/>
<path d="M745 4868 c-3 -13 -12 -54 -20 -93 -8 -38 -19 -87 -24 -107 l-9 -38
38 0 c41 0 42 1 55 68 l7 32 73 0 c76 0 85 5 85 51 0 17 -8 19 -70 19 -40 0
-70 4 -70 10 0 6 33 10 80 10 44 0 80 1 80 3 0 1 4 17 9 35 l10 32 -120 0
c-115 0 -119 -1 -124 -22z"/>
<path d="M991 4778 c-12 -62 -24 -121 -27 -130 -5 -16 5 -18 115 -18 90 0 121
3 121 13 0 6 3 22 6 35 6 21 4 22 -70 22 -88 0 -86 -3 -61 110 8 36 14 68 15
73 0 4 -17 7 -39 7 l-38 0 -22 -112z"/>
<path d="M1372 4857 c-92 -127 -152 -213 -152 -219 0 -5 17 -8 39 -8 30 0 42
5 55 25 15 23 23 25 91 25 69 0 74 -1 77 -22 2 -19 10 -24 45 -26 l42 -3 -14
48 c-9 26 -25 85 -38 131 l-22 82 -50 0 c-45 -1 -52 -4 -73 -33z m66 -105
c-10 -2 -27 -2 -38 0 -20 3 -19 5 7 43 l26 39 12 -39 c10 -36 9 -40 -7 -43z"/>
<path d="M1921 4783 c-13 -60 -25 -118 -28 -130 -5 -21 -2 -23 35 -23 40 0 40
0 49 48 l8 47 65 0 c38 0 64 -4 63 -10 -1 -5 -4 -27 -8 -47 l-7 -38 39 0 38 0
24 108 c12 59 25 117 28 130 5 20 2 22 -35 22 -41 0 -41 0 -48 -45 l-6 -45
-70 0 c-61 0 -69 2 -65 18 20 72 20 72 -21 72 l-39 0 -22 -107z"/>
<path d="M2256 4878 c-18 -57 -17 -58 35 -58 57 0 56 1 34 -100 -20 -93 -21
-92 22 -88 l37 3 20 93 19 92 54 0 c46 0 53 3 53 19 0 11 3 26 6 35 5 14 -10
16 -135 16 -105 0 -143 -3 -145 -12z"/>
<path d="M2625 4804 c-33 -48 -72 -103 -87 -122 -16 -19 -28 -39 -28 -43 0 -5
18 -9 40 -9 34 0 42 4 52 25 11 25 15 26 87 23 70 -3 76 -5 79 -25 3 -19 10
-23 43 -23 48 0 48 -1 6 145 l-32 110 -50 3 -51 3 -59 -87z m104 -52 c-11 -2
-28 -2 -39 0 -20 3 -19 5 7 43 l27 40 12 -40 c10 -36 9 -40 -7 -43z"/>
<path d="M831 4396 c-12 -14 4 -65 47 -151 11 -22 43 -89 70 -150 28 -60 78
-171 112 -245 34 -74 96 -209 137 -300 41 -91 87 -192 103 -225 26 -56 88
-190 282 -615 44 -96 101 -222 128 -280 27 -58 67 -145 89 -195 52 -115 55
-120 72 -120 12 0 81 115 165 277 l35 66 -36 77 c-19 42 -35 78 -35 81 0 2
-15 36 -34 76 -36 78 -143 313 -223 494 l-50 111 186 7 c102 4 189 10 194 15
4 4 6 72 5 152 l-3 144 -261 3 c-193 2 -264 6 -271 15 -5 6 -27 53 -47 102
-21 50 -42 95 -46 100 -6 8 -53 113 -87 193 -4 9 153 12 766 12 l771 0 23 38
c60 96 160 301 154 316 -6 15 -99 16 -1120 16 -939 0 -1116 -2 -1126 -14z"/>
<path d="M1770 3923 c5 -10 34 -58 63 -108 l52 -90 153 -3 c130 -2 152 -5 152
-18 0 -9 -18 -89 -40 -177 -81 -334 -110 -460 -106 -464 2 -3 55 25 118 61 62
36 114 62 116 58 1 -4 -14 -63 -33 -132 -19 -69 -55 -197 -79 -285 -25 -88
-52 -182 -60 -210 -8 -27 -14 -50 -13 -52 2 -1 25 41 53 94 27 54 76 149 110
213 33 63 105 201 159 305 53 105 113 218 132 253 19 34 32 62 28 62 -3 0 -60
-13 -125 -30 -65 -16 -121 -30 -123 -30 -3 0 8 35 24 78 34 88 99 266 99 270
0 1 67 2 150 2 l149 0 55 94 c31 51 58 101 62 110 6 15 -40 16 -550 16 -527 0
-556 -1 -546 -17z"/>
</g>
</svg>
